<?xml version="1.0" encoding="utf-8"?>
<!-- Generator: Adobe Illustrator 25.4.1, SVG Export Plug-In . SVG Version: 6.00 Build 0)  -->
<svg version="1.1" id="Capa_1" xmlns="http://www.w3.org/2000/svg" xmlns:xlink="http://www.w3.org/1999/xlink" x="0px" y="0px"
	 viewBox="0 0 448 512" style="enable-background:new 0 0 448 512;" xml:space="preserve">
<style type="text/css">
	.st0{fill:#FFFFFF;}
</style>
<path class="st0" d="M96,256c0-88.4,71.6-160,160-160c41,0,78.3,15.4,106.7,40.7c13.2,11.8,33.4,10.7,45.2-2.5s10.7-33.4-2.5-45.2
	c-39.6-35.5-92-57-149.3-57C132.3,32,32,132.3,32,256s100.3,224,224,224c57.4,0,109.7-21.6,149.3-57c13.2-11.8,14.3-32,2.5-45.2
	s-32-14.3-45.2-2.5C334.3,400.6,297,416,256,416v-96v-8.7c0-12.8,10.4-23.3,23.3-23.3c4.6,0,9.1,1.4,12.9,3.9l10.1,6.7
	c14.7,9.8,34.6,5.8,44.4-8.9s5.8-34.6-8.9-44.4l-10.1-6.7c-14.3-9.6-31.2-14.7-48.4-14.7c-12.4,0-24.2,2.6-34.9,7.3
	c-5.5-4.5-12.6-7.3-20.3-7.3c-17.7,0-32,14.3-32,32v55.3v8.8v82.7C135.5,378,96,321.6,96,256z"/>
</svg>
